# xmcd
#
# Track frame offsets: 
#        150
#        24493
#        39479
#        60543
#        83380
#        98904
#        133479
#        152628
#        168566
#        172445
#        191327
#        223249
#
# Disc length: 3185 seconds
#
# Revision: 0
# Processed by: cddbd v1.5.2PL0 Copyright (c) Steve Scherf et al.
# Submitted via: ExactAudioCopy v1.0b4
#
DISCID=a60c6f0c
DTITLE=Madisen Ward and the Mama Bear - Skeleton Crew
DYEAR=2015
DGENRE=Blues
TTITLE0=Live by the Water
TTITLE1=Silent Movies
TTITLE2=Modern Day Mystery
TTITLE3=Dead Daffodils
TTITLE4=Whole Lotta Problems
TTITLE5=Fight On
TTITLE6=Yellow Taxi
TTITLE7=Daisy Jane
TTITLE8=Been in a Ditch
TTITLE9=Undertaker and Juniper
TTITLE10=Down in Mississippi
TTITLE11=Sorrows and Woes
EXTD=
EXTT0=
EXTT1=
EXTT2=
EXTT3=
EXTT4=
EXTT5=
EXTT6=
EXTT7=
EXTT8=
EXTT9=
EXTT10=
EXTT11=
PLAYORDER=
